<svg width="365" height="365" viewBox="0 0 365 365" fill="none" xmlns="http://www.w3.org/2000/svg">
<path d="M111.015 345.746C108.856 344.96 106.534 344.728 104.263 345.071C103.996 345.163 103.765 345.335 103.602 345.564C103.438 345.793 103.35 346.067 103.35 346.349C103.35 346.63 103.438 346.905 103.602 347.134C103.765 347.363 103.996 347.535 104.263 347.626C108.88 349.652 116.8 348.229 111.015 345.746ZM105.65 347.572C102.529 346.312 105.394 345.272 106.38 345.272C110.449 345.272 113.059 346.914 111.179 347.936C109.347 348.453 107.393 348.318 105.65 347.553V347.572ZM154.377 333.975C154.052 334.034 153.751 334.187 153.512 334.415C153.272 334.643 153.104 334.935 153.029 335.257C152.953 335.579 152.973 335.915 153.086 336.226C153.199 336.536 153.401 336.807 153.665 337.005C154.592 337.557 155.622 337.915 156.692 338.057C157.762 338.198 158.85 338.119 159.888 337.826C161.714 337.37 163.192 336.001 161.714 334.815C161.695 334.778 157.078 333.117 154.377 333.975ZM158.191 337.625C157.186 337.688 156.178 337.602 155.198 337.37C152.461 336.22 153.702 334.322 156.147 334.322C156.603 334.322 160.473 334.322 161.403 335.161C162.827 336.439 159.962 337.625 158.191 337.625ZM183.705 335.125C182.865 335.746 183.595 336.95 184.325 337.187C185.055 337.424 187.227 337.717 187.537 336.658C187.975 335.07 184.562 334.523 183.705 335.125ZM184.343 336.585C183.559 336.184 183.413 335.271 185.092 335.326C186.771 335.381 188.888 337.151 185.639 336.877C185.186 336.869 184.739 336.77 184.325 336.585H184.343ZM94.9003 189.381C94.8615 189.381 94.8244 189.396 94.797 189.423C94.7696 189.451 94.7542 189.488 94.7542 189.527C94.7542 189.565 94.7696 189.602 94.797 189.63C94.8244 189.657 94.8615 189.673 94.9003 189.673C96.196 189.673 104.263 191.114 104.025 189.381C104.025 188.979 99.9738 185.201 100.375 185.092C100.777 184.982 106.124 186.479 107.292 186.479C107.511 186.479 107.566 186.114 107.292 186.096H106.872C108.135 184.794 109.045 183.192 109.519 181.442C110.004 183.066 110.75 184.601 111.727 185.986C111.781 186.037 111.853 186.066 111.928 186.066C112.002 186.066 112.074 186.037 112.128 185.986C112.311 185.877 112.731 185.293 114.975 183.413C113.588 188.724 113.15 188.888 113.643 189.016C116.267 189.365 118.934 189.229 121.509 188.614C121.537 188.604 121.561 188.585 121.578 188.561C121.595 188.536 121.604 188.507 121.604 188.477C121.604 188.447 121.595 188.418 121.578 188.394C121.561 188.369 121.537 188.351 121.509 188.34C120.414 188.505 115.249 189.545 114.464 188.34C113.917 187.501 115.523 183.833 115.778 182.738C115.789 182.703 115.793 182.666 115.788 182.63C115.784 182.594 115.772 182.559 115.753 182.528C115.734 182.497 115.708 182.47 115.678 182.449C115.648 182.429 115.613 182.415 115.578 182.409C115.121 182.281 112.986 185.274 111.928 184.964C110.869 184.654 110.103 181.205 109.902 180.183C109.902 179.945 109.446 179.909 109.409 180.183C109.073 182.353 108.065 184.364 106.526 185.931C104.287 185.59 102.082 185.053 99.9372 184.325C99.8916 184.311 99.8428 184.312 99.7973 184.326C99.7518 184.34 99.7117 184.368 99.6821 184.405C99.6526 184.443 99.635 184.488 99.6316 184.536C99.6283 184.583 99.6394 184.631 99.6635 184.672C100.211 185.439 103.679 189.143 103.496 189.527C103.313 189.91 96.488 189.399 94.9003 189.381ZM171.55 55.2065C171.091 56.6246 170.338 57.9303 169.342 59.039C168.995 59.4588 168.156 60.0975 168.229 60.718C168.356 61.813 170.802 62.2875 171.605 62.324C171.649 62.324 171.69 62.3067 171.721 62.2759C171.752 62.2451 171.769 62.2033 171.769 62.1598C171.769 62.1162 171.752 62.0744 171.721 62.0436C171.69 62.0128 171.649 61.9955 171.605 61.9955C170.882 61.9132 170.188 61.6633 169.579 61.2655C168.156 60.061 170.765 59.55 171.787 55.2795C171.807 55.2624 171.822 55.2404 171.83 55.2157C171.838 55.191 171.84 55.1646 171.834 55.1392C171.829 55.1137 171.817 55.0902 171.799 55.071C171.782 55.0518 171.759 55.0376 171.734 55.03C171.71 55.0223 171.683 55.0215 171.658 55.0275C171.632 55.0335 171.609 55.0461 171.59 55.0641C171.572 55.0821 171.558 55.1048 171.551 55.1299C171.544 55.1549 171.544 55.1814 171.55 55.2065ZM175.821 67.2333C177.303 67.408 178.796 67.0161 180.001 66.136C181.206 65.256 182.033 63.953 182.318 62.4883C182.318 62.178 181.934 61.959 181.807 62.2693C180.712 64.7513 178.85 67.0143 175.876 66.8865C175.675 66.8865 175.62 67.1968 175.821 67.2333ZM168.156 49.549C167.611 49.6169 167.087 49.8021 166.621 50.092C166.155 50.3819 165.757 50.7695 165.455 51.228C165.423 51.2727 165.402 51.3239 165.392 51.378C165.383 51.432 165.386 51.4874 165.401 51.5401C165.416 51.5928 165.443 51.6415 165.479 51.6824C165.516 51.7234 165.561 51.7556 165.612 51.7767C165.662 51.7978 165.717 51.8072 165.772 51.8042C165.826 51.8013 165.88 51.786 165.928 51.7596C165.976 51.7332 166.017 51.6963 166.049 51.6517C166.081 51.607 166.102 51.5558 166.112 51.5018C166.332 51.0966 166.639 50.7455 167.011 50.474C167.384 50.2025 167.812 50.0175 168.265 49.9323C168.31 49.9132 168.347 49.8783 168.368 49.834C168.39 49.7898 168.394 49.7393 168.38 49.6921C168.367 49.645 168.337 49.6043 168.295 49.578C168.254 49.5516 168.204 49.5413 168.156 49.549ZM177.846 49.5673C178.408 49.6618 178.943 49.8731 179.418 50.1874C179.893 50.5018 180.296 50.9122 180.602 51.3923C180.643 51.46 180.71 51.5087 180.787 51.5275C180.864 51.5463 180.945 51.5338 181.013 51.4926C181.081 51.4515 181.129 51.3851 181.148 51.3081C181.167 51.2311 181.154 51.1498 181.113 51.082C180.76 50.5307 180.274 50.0765 179.7 49.7609C179.127 49.4453 178.483 49.2784 177.828 49.2753C177.591 49.2753 177.591 49.549 177.846 49.5673ZM167.097 54.1845C166.849 54.9084 166.707 55.6646 166.677 56.4293C166.677 56.497 166.704 56.562 166.752 56.6099C166.8 56.6579 166.865 56.6848 166.933 56.6848C167.001 56.6848 167.066 56.6579 167.114 56.6099C167.162 56.562 167.188 56.497 167.188 56.4293C167.368 55.7207 167.502 55.0014 167.59 54.2758C167.589 54.2167 167.568 54.1597 167.53 54.1145C167.492 54.0694 167.439 54.0388 167.381 54.0281C167.323 54.0173 167.263 54.027 167.211 54.0555C167.159 54.0841 167.119 54.1296 167.097 54.1845ZM177.591 56.3745C177.764 55.509 177.856 54.6292 177.865 53.7465C177.865 53.4363 177.354 53.3633 177.299 53.7465C177.112 54.5853 177.021 55.4423 177.025 56.3015C177.031 56.3678 177.059 56.4302 177.105 56.4782C177.152 56.5262 177.213 56.5571 177.279 56.5656C177.345 56.5741 177.412 56.5598 177.469 56.525C177.525 56.4903 177.569 56.4372 177.591 56.3745ZM346.458 314.284C344.047 315.521 341.916 317.242 340.198 319.339C338.228 314.539 340.417 310.305 342.918 306.181C342.944 306.125 342.953 306.062 342.941 306.002C342.93 305.941 342.9 305.886 342.856 305.843C342.811 305.801 342.755 305.773 342.694 305.765C342.633 305.757 342.57 305.768 342.516 305.797C338.605 308.583 335.343 312.181 332.953 316.346C332.953 315.652 332.953 314.977 332.825 314.265C332.826 314.224 332.817 314.182 332.8 314.144C332.783 314.106 332.759 314.072 332.727 314.045C332.696 314.017 332.66 313.996 332.62 313.984C332.58 313.972 332.538 313.968 332.497 313.973C332.205 313.973 332.241 313.973 331.621 316.346C331.073 314.521 330.526 312.696 329.997 310.999C329.997 310.743 329.467 310.688 329.413 310.999C329.209 312.358 329.178 313.738 329.321 315.105C326.331 313.044 323.461 310.814 320.726 308.425C320.67 308.391 320.604 308.377 320.539 308.384C320.474 308.392 320.413 308.421 320.367 308.468C320.32 308.514 320.291 308.575 320.283 308.64C320.276 308.705 320.29 308.771 320.324 308.827C322.872 311.628 325.219 314.604 327.35 317.733C327.496 317.952 327.843 317.733 327.697 317.532C321.857 308.644 320.269 309.666 329.522 315.981C329.759 316.145 329.978 315.871 329.942 315.634C329.805 314.63 329.768 313.615 329.832 312.604L331.311 317.55C331.336 317.627 331.39 317.691 331.462 317.728C331.533 317.766 331.617 317.774 331.694 317.751C331.931 317.751 331.895 317.587 332.296 316.109V317.404C332.292 317.475 332.312 317.545 332.353 317.603C332.394 317.661 332.454 317.703 332.522 317.722C332.59 317.742 332.663 317.737 332.728 317.709C332.793 317.681 332.847 317.631 332.88 317.569C335.022 313.551 337.966 310.016 341.531 307.184C339.359 310.926 337.333 315.415 339.706 319.521C339.767 319.668 339.868 319.794 339.998 319.886C340.058 319.904 340.123 319.905 340.184 319.889C340.245 319.873 340.301 319.84 340.344 319.795C341.763 318.229 343.369 316.844 345.126 315.671C344.081 316.96 343.519 318.574 343.538 320.233C343.538 320.489 343.994 320.58 344.013 320.233C344.248 318.106 345.223 316.129 346.768 314.649C347.06 314.503 346.75 314.174 346.458 314.284ZM354.05 160.108C351.111 160.63 348.442 162.151 346.495 164.415C346.309 161.609 346.752 158.797 347.79 156.184C347.809 156.125 347.807 156.062 347.785 156.005C347.763 155.947 347.723 155.899 347.67 155.867C347.617 155.836 347.556 155.823 347.495 155.831C347.434 155.838 347.377 155.866 347.334 155.91C344.578 158.885 343.885 163.374 343.465 163.484C343.465 163.484 342.37 162.626 342.242 162.535C340.188 161.102 337.97 159.919 335.636 159.013C335.344 158.903 335.18 159.359 335.435 159.505C337.94 161.017 340.088 163.052 341.731 165.473C341.841 165.656 342.151 165.473 342.023 165.291C340.822 163.456 339.337 161.824 337.625 160.454C339.783 161.479 341.79 162.793 343.593 164.36C343.627 164.393 343.67 164.417 343.716 164.429C343.763 164.441 343.812 164.44 343.858 164.427C343.904 164.414 343.946 164.39 343.98 164.355C344.013 164.321 344.037 164.278 344.049 164.232C344.454 161.858 345.377 159.603 346.75 157.626C346.02 160.048 345.766 162.589 346.002 165.108C346.002 165.327 346.33 165.528 346.495 165.309C348.182 163.121 350.553 161.56 353.229 160.874C352.46 161.653 351.852 162.576 351.442 163.591C351.032 164.606 350.826 165.692 350.838 166.787C350.838 166.852 350.864 166.915 350.91 166.961C350.957 167.007 351.019 167.033 351.085 167.033C351.15 167.033 351.213 167.007 351.259 166.961C351.305 166.915 351.331 166.852 351.331 166.787C351.479 164.416 352.547 162.197 354.306 160.6C354.543 160.381 354.287 160.071 354.05 160.108ZM85.8665 158.027C87.144 155.034 88.2573 145.252 86.2133 141.018C85.9651 140.324 85.5537 139.7 85.0137 139.198C84.4738 138.696 83.8211 138.331 83.1108 138.135C81.0485 137.751 81.5778 135.434 81.596 133.736C81.596 129.356 81.596 113.388 80.6653 109.92C79.26 105.047 74.8253 100.266 69.3503 100.941C67.799 101.142 67.5253 102 67.4158 100.12C67.4158 97.7108 67.7443 66.485 62.8898 61.5758C58.9843 57.6338 53.0713 56.557 48.6548 60.353C42.76 65.4265 42.541 74.953 41.7015 82.253C40.4728 91.2451 40.6267 100.372 42.1578 109.318C37.5588 108.661 35.1315 113.26 34.4015 117.202C33.2743 123.734 33.0471 130.391 33.7263 136.985C33.854 138.463 35.3505 146.11 35.168 146.493C34.7665 147.278 32.1933 146.895 28.9448 149.395C21.6448 155.034 21.6448 169.47 27.4118 177.336C29.2368 179.763 31.8648 181.132 32.2115 184.325C33.1788 195.513 48.089 202.429 60.0063 202.046C60.499 214.566 61.3203 227.067 61.667 239.586C61.679 239.623 61.7022 239.655 61.7334 239.677C61.7645 239.7 61.8019 239.712 61.8404 239.712C61.8788 239.712 61.9163 239.7 61.9474 239.677C61.9785 239.655 62.0018 239.623 62.0138 239.586C61.667 227.085 61.74 214.493 60.6268 202.028C68.5108 201.59 76.048 198.195 80.3733 191.242C84.0233 184.946 84.6073 176.642 83.8773 169.598C83.4503 167.723 83.1636 165.82 83.0195 163.904C83.1473 161.586 85.0088 160.053 85.8665 158.027ZM74.4603 147.077C69.888 153.971 64.9282 160.601 59.6048 166.933C59.7873 172.974 60.1523 193.213 61.156 198.25C61.144 198.287 61.1208 198.318 61.0896 198.341C61.0585 198.363 61.0211 198.376 60.9826 198.376C60.9442 198.376 60.9067 198.363 60.8756 198.341C60.8445 198.318 60.8213 198.287 60.8093 198.25C59.756 192.469 59.2125 186.606 59.185 180.73C55.8533 179.507 52.7913 177.647 50.1695 175.255C47.7788 173.175 44.5485 170.656 43.417 167.59C43.3075 167.298 43.7638 167.116 43.928 167.389C45.6365 170.129 47.8033 172.555 50.3338 174.562C52.913 176.955 55.9143 178.849 59.185 180.146C59.185 177.226 58.4368 154.596 58.1995 146.274C55.4438 144.102 52.7245 141.912 50.133 139.485C48.1255 137.66 45.5705 135.397 44.7858 132.623C44.6945 132.331 45.1508 132.13 45.2785 132.422C47.8883 137.751 53.5093 141.967 58.163 145.617C58.163 144.778 56.8308 105.467 56.338 86.5965C56.3569 86.5114 56.4043 86.4353 56.4723 86.3807C56.5403 86.3261 56.6249 86.2964 56.7121 86.2964C56.7993 86.2964 56.8839 86.3261 56.9519 86.3807C57.02 86.4353 57.0673 86.5114 57.0863 86.5965C57.506 97.9845 57.8345 109.354 58.1813 120.742C60.5567 118.94 62.5903 116.728 64.1855 114.209C64.241 114.143 64.3181 114.098 64.4032 114.084C64.4882 114.069 64.5757 114.085 64.6501 114.129C64.7245 114.173 64.781 114.241 64.8095 114.323C64.8381 114.404 64.8368 114.493 64.806 114.574C63.0784 117.271 60.8253 119.592 58.1813 121.399C58.382 128.334 59.3128 158.045 59.5683 165.966C64.5688 159.706 69.1678 153.191 73.8033 146.584C74.077 146.274 74.8253 146.639 74.4603 147.059V147.077Z" fill="black"/>
<path d="M344.396 116.472C350.328 108.643 352.664 98.5686 354.197 89.0968C355.962 78.1895 356.336 67.1023 355.31 56.1008C354.963 52.4508 354.525 48.3081 351.915 45.4246C350.656 44.0193 348.959 43.0703 347.791 41.6103C345.71 39.0918 346.787 35.0403 346.751 31.9743C346.751 27.8316 345.893 23.3056 342.845 20.2578C339.797 17.2101 334.87 16.2246 330.855 16.4253C329.029 16.5452 327.256 17.0853 325.673 18.0033C324.09 18.9213 322.741 20.1925 321.73 21.7178C320.736 23.3166 319.945 25.0332 319.376 26.8278C317.551 31.6641 312.769 32.1203 310.415 36.4638C309.534 38.5168 308.956 40.6869 308.699 42.9061C308.134 45.2238 304.319 50.2061 303.991 50.8813C280.43 50.5711 269.973 50.6988 269.973 50.6988C269.956 49.7103 269.739 48.7355 269.334 47.8336C268.308 45.8678 267.588 43.7569 267.199 41.5738C265.538 37.5406 262.381 35.5148 258.475 33.9453C254.26 32.2481 250.646 28.4703 245.81 28.7623C241.461 28.8898 237.311 30.6109 234.148 33.5986C231.027 37.0296 231.1 39.7306 229.494 42.4681C228.866 43.4509 228.293 44.4684 227.779 45.5158C227.141 47.4069 226.695 49.3573 226.447 51.3376C217.966 52.2906 209.424 52.5957 200.897 52.25C201.335 49.841 202.046 47.4503 202.722 45.1326C207.175 44.1836 207.594 33.0328 197.995 31.9743C197.393 30.6786 198.214 29.6018 199.126 28.7623C198.47 28.6367 197.793 28.676 197.156 28.8767C196.519 29.0774 195.942 29.4332 195.476 29.9121C195.681 29.2404 195.742 28.5332 195.655 27.8365C195.568 27.1398 195.335 26.4692 194.972 25.8684C194.609 25.2675 194.123 24.7499 193.546 24.3492C192.97 23.9486 192.315 23.6738 191.626 23.5428C192.27 24.4057 192.679 25.421 192.813 26.4894C192.948 27.5578 192.803 28.6428 192.392 29.6383C191.023 25.6598 182.975 19.9841 172.646 20.9331C173.485 21.9003 173.96 23.6158 172.5 24.1086C165.4 26.4811 161.349 22.5391 161.422 22.0828C159.378 28.7988 162.115 30.0946 161.531 30.4231C159.988 31.4818 158.781 32.9609 158.053 34.6851C157.325 36.4092 157.107 38.306 157.425 40.1503C157.719 39.605 158.118 39.124 158.601 38.7358C159.083 38.3475 159.638 38.0598 160.234 37.8897C160.829 37.7196 161.453 37.6705 162.067 37.7453C162.682 37.8201 163.275 38.0173 163.813 38.3253C162.521 42.3889 161.635 46.5702 161.166 50.8083C155.509 50.6258 133.335 50.3886 128.097 51.2646C128.335 45.3881 126.491 44.8953 125.834 41.9936C123.754 32.7226 119.739 31.9561 113.607 29.0726C109.19 27.0103 105.34 23.2691 100.12 23.5976C94.9006 23.9261 89.6446 25.8058 86.3779 29.7478C83.1111 33.6898 83.7681 35.9711 81.1584 40.1503C79.1814 43.1265 78.1159 46.6149 78.0924 50.1878C65.3174 50.9726 20.7691 49.8228 9.27161 49.7498C9.22321 49.7498 9.17679 49.769 9.14256 49.8033C9.10834 49.8375 9.08911 49.8839 9.08911 49.9323C9.08911 49.9807 9.10834 50.0271 9.14256 50.0613C9.17679 50.0956 9.22321 50.1148 9.27161 50.1148C20.7691 50.2608 66.6861 51.2828 78.1106 50.9361C78.4026 57.5608 82.5819 59.9516 85.4106 62.8351C86.9904 64.7738 89.065 66.2494 91.4149 67.1056C93.9516 67.8538 99.4266 67.361 100.668 66.4668C101.014 70.9016 101.58 75.3181 102.31 79.6616C102.31 80.0813 103.113 79.9901 103.058 79.6616C102.602 75.2998 102.164 70.9563 101.836 66.6128C101.945 66.6128 103.861 67.5435 104.719 67.8721C107.264 68.6713 109.962 68.8515 112.591 68.3976C115.219 67.9436 117.701 66.8688 119.83 65.2623C123.918 61.8313 127.678 57.3053 128.17 51.8303C131.072 51.4471 155.819 51.8303 161.166 51.666C160.871 55.0416 161.024 58.4414 161.623 61.7766C162.845 68.237 165.802 71.7958 174.197 73.9858C173.704 77.3256 174.471 81.4683 170.291 82.7823C157.681 84.8993 146.877 90.6298 136.748 98.2401C135.105 99.4628 133.919 99.6453 134.357 101.653C132.986 102.271 131.657 102.979 130.379 103.77C130.762 102.073 133.773 81.1763 134.704 72.4346C134.815 72.3658 134.919 72.2864 135.014 72.1973C135.616 72.8178 136.547 72.3798 136.949 71.6863C137.754 71.2542 138.427 70.6119 138.896 69.8278C139.365 69.0437 139.613 68.1471 139.613 67.2333C141.11 65.1528 141.931 65.2258 141.621 64.4046C141.31 63.5833 139.686 63.3461 138.92 63.8388C137.277 61.3568 132.952 61.3568 130.525 62.5066C125.944 64.6783 126.619 69.8066 124.794 73.7486C120.031 84.2971 108.168 94.6813 103.642 112.074C101.817 119.228 102.912 126.674 109.482 130.999C118.151 136.675 130.506 132.404 138.39 127.093C138.555 127.458 138.774 128.28 139.558 128.207C142.249 127.88 144.829 126.937 147.096 125.451C146.384 131.419 145.982 148.811 145.891 154.833C145.891 159.852 145.636 167.608 146.475 168.284C147.199 168.775 148.01 169.123 148.866 169.306C148.318 174.781 150.691 194.089 150.691 195.221C157.644 188.067 158.52 187.337 163.046 182.847C163.075 182.82 163.114 182.806 163.153 182.808C163.192 182.81 163.229 182.827 163.256 182.856C163.283 182.885 163.297 182.924 163.295 182.963C163.293 183.002 163.276 183.039 163.247 183.066C160.29 186.278 144.431 203.269 143.865 204.966C143.3 206.663 146.621 209.784 146.731 209.875C134.558 224.475 134.175 228.399 131.054 247.233C122.969 251.65 111.362 254.533 110.979 252.964C110.614 251.595 112.037 249.879 112.986 249.149C113.242 248.967 113.205 248.492 112.822 248.511C110.136 248.703 107.615 249.879 105.741 251.814C105.748 250.612 106.014 249.426 106.521 248.336C107.028 247.246 107.764 246.279 108.679 245.499C109.008 245.226 108.679 244.806 108.278 244.952C104.629 246.611 101.55 249.309 99.4266 252.708C98.6623 250.764 98.6042 248.613 99.2624 246.631C99.3719 246.266 98.9339 246.175 98.6784 246.375C96.1416 248.474 95.8496 252.964 95.7219 253.055C95.2291 253.402 88.3306 248.93 82.9469 250.044C82.6184 250.044 82.4906 250.591 82.9469 250.664C86.1311 251.322 88.9517 253.152 90.8491 255.792C86.1526 258.756 81.0669 261.054 75.7381 262.618C56.5756 268.677 32.3031 270.1 12.6114 269.261C12.5581 269.261 12.5071 269.282 12.4694 269.32C12.4318 269.357 12.4106 269.408 12.4106 269.462C12.4106 269.515 12.4318 269.566 12.4694 269.604C12.5071 269.641 12.5581 269.662 12.6114 269.662C28.1508 270.483 43.7334 269.7 59.1124 267.326C69.3141 265.593 82.8374 262.162 91.3601 256.176C91.409 256.142 91.4491 256.097 91.4767 256.045C91.5044 255.992 91.5188 255.934 91.5188 255.874C91.5188 255.815 91.5044 255.757 91.4767 255.704C91.4491 255.652 91.409 255.607 91.3601 255.573C89.9449 253.373 87.8777 251.669 85.4471 250.701C89.1003 251.007 92.6313 252.163 95.7584 254.077C95.8011 254.097 95.8477 254.108 95.895 254.109C95.9423 254.11 95.9893 254.1 96.0326 254.081C96.0759 254.062 96.1146 254.034 96.146 253.999C96.1775 253.963 96.2009 253.921 96.2146 253.876C96.5212 251.869 97.2022 249.938 98.2221 248.182C97.9859 250.014 98.2771 251.875 99.0616 253.548C99.093 253.597 99.1362 253.637 99.1872 253.665C99.2382 253.693 99.2954 253.707 99.3536 253.707C99.4118 253.707 99.469 253.693 99.52 253.665C99.5711 253.637 99.6142 253.597 99.6456 253.548C101.35 250.575 103.804 248.102 106.763 246.375C105.446 248.141 104.834 250.333 105.048 252.526C105.047 252.593 105.067 252.66 105.103 252.717C105.14 252.774 105.193 252.819 105.255 252.846C105.318 252.873 105.386 252.881 105.453 252.87C105.52 252.858 105.582 252.827 105.632 252.781C107.175 250.872 109.35 249.578 111.764 249.131C111.158 249.779 110.718 250.564 110.483 251.419C110.248 252.274 110.224 253.174 110.413 254.04C110.439 254.127 110.497 254.2 110.575 254.244C110.653 254.288 110.746 254.3 110.833 254.278C117.658 253.274 125.013 251.595 130.908 247.799C128.718 260.957 124.831 289.026 124.393 303.753C123.895 303.952 123.448 304.258 123.082 304.649C122.716 305.04 122.441 305.507 122.276 306.016C121.765 307.13 120.451 310.926 109.008 310.853C108.15 310.853 106.781 310.469 105.778 311.181C103.588 312.769 104.409 316.072 106.088 317.678C108.57 320.032 112.767 321.328 115.943 322.514C119.593 323.792 124.429 325.672 128.335 324.869C133.007 323.938 134.229 316.912 134.029 312.094C138.5 300.505 146.274 290.559 151.494 279.244C156.184 269.115 161.039 260.063 164.032 250.044C164.652 247.963 164.689 246.047 166.568 244.715C167.663 243.948 177.354 238.072 180.548 235.225C181.772 236.191 183.1 237.017 184.508 237.688C186.333 238.035 191.808 231.666 193.104 230.388C197.989 234.07 203.58 236.704 209.529 238.126C213.529 239.163 217.579 239.992 221.665 240.608C236.612 242.999 261.14 245.901 264.224 246.083C264.583 246.498 265.034 246.821 265.542 247.027C266.049 247.234 266.598 247.317 267.144 247.27C268.385 247.27 275.484 246.029 277.127 257.271C277.729 261.03 282.255 262.563 284.427 257.398C285.723 254.278 285.12 249.697 284.828 246.448C284.482 242.525 284.135 237.506 281.927 234.148C279.992 231.21 275.503 230.662 271.451 232.505C270.071 233.032 268.724 233.641 267.418 234.33C251.358 228.509 236.393 219.968 221.3 212.138C218.873 210.879 216.519 209.456 214.128 208.105C215.053 206.888 215.929 205.611 216.756 204.273C223.819 200.13 230.48 194.345 233.929 187.282C234.856 185.628 235.417 183.795 235.574 181.906C235.731 180.017 235.482 178.116 234.842 176.332C233.017 171.824 228.454 169.141 224.257 167.207C224.192 151.616 222.43 136.079 219.001 120.87C222.778 122.695 224.202 123.516 225.662 123.498C226.757 123.498 226.903 123.042 227.487 122.075C228.071 121.107 228.545 120.25 229.075 119.355C232.506 122.44 237.926 123.151 242.251 124.265C239.678 131.931 238.673 140.036 239.295 148.099C239.697 157.116 240.697 166.097 242.288 174.981C240.974 176.259 238.218 174.981 237.488 175.967C236.484 177.317 239.787 178.412 240.846 178.723C240.142 180.263 239.901 181.975 240.152 183.65C241.083 185.84 244.405 186.917 246.595 186.661C248.785 186.406 249.058 184.471 249.606 182.811C250.378 180.571 250.713 178.205 250.591 175.839C253.895 160.381 263.366 146.639 264.735 130.689C265.465 124.162 264.192 117.567 261.085 111.782C258.877 107.894 255.245 105.376 251.686 102.839C247.258 99.6757 242.713 96.701 238.054 93.9148C238.382 92.4548 238.565 92.2541 238.254 92.0898C237.524 91.6883 236.758 91.3233 236.01 90.9583C256.924 81.4866 279.81 80.8478 302.02 76.2306C301.053 83.5306 300.323 94.2251 301.874 99.3168C273.276 116.198 274.718 147.205 293.953 157.078C305.214 162.827 317.678 161.768 329.577 171.386C338.118 178.339 342.809 188.614 344.451 199.345C348.101 223.07 338.1 251.96 324.778 272.071C311.455 292.183 292.092 308.571 271.67 321.693C236.21 344.305 216.774 346.75 217.176 347.535C217.188 347.576 217.216 347.61 217.254 347.63C217.291 347.651 217.335 347.656 217.376 347.645C233.801 343.484 249.478 335.527 264.023 327.077C284.409 315.214 303.626 300.304 318.463 281.872C333.775 262.8 344.579 238.272 345.838 213.525C347.061 189.8 338.064 170.145 315.397 162.955C303.735 159.305 287.493 158.246 282.127 142.387C277.547 128.791 283.149 111.161 302.002 99.9191C305.378 114.026 317.934 123.389 328.866 123.516C328.866 130.305 329.431 137.094 329.687 143.865C329.687 144.139 330.161 144.139 330.125 143.865C329.924 137.094 330.125 130.287 329.577 123.516C332.397 123.415 335.167 122.738 337.716 121.527C340.264 120.315 342.538 118.595 344.396 116.472ZM125.798 57.2141C124.794 59.8968 121.619 62.9446 119.429 64.8608C117.415 66.3871 115.074 67.4227 112.59 67.8853C110.106 68.3478 107.548 68.2246 105.121 67.5253C104.007 67.1238 101.726 65.9376 101.726 65.9376C101.726 65.9376 101.562 63.8206 101.507 62.7621C105.433 59.145 108.749 54.9174 111.326 50.2426C111.326 50.0966 111.18 49.9688 111.088 50.0966C108.443 54.4237 105.178 58.3403 101.398 61.7218C101.087 56.5936 100.887 51.4653 100.85 46.3188C104.026 43.9154 106.42 40.6263 107.73 36.8653C107.822 36.6828 107.493 36.5368 107.402 36.7376C105.694 39.9463 103.468 42.8507 100.814 45.3333C100.814 42.5958 100.814 39.8583 100.941 37.1208C100.941 37.0772 100.924 37.0355 100.893 37.0047C100.862 36.9739 100.821 36.9566 100.777 36.9566C100.734 36.9566 100.692 36.9739 100.661 37.0047C100.63 37.0355 100.613 37.0772 100.613 37.1208C100.266 41.4643 100.047 45.8443 99.9924 50.2426C97.8224 49.6624 95.7412 48.7906 93.8056 47.6511C93.6049 47.5051 93.4406 47.8153 93.6231 47.9613C95.5089 49.4544 97.6934 50.5249 100.029 51.1003C100.029 56.0278 100.522 65.8828 100.522 65.8828C98.9376 66.7088 97.1872 67.1657 95.4015 67.2195C93.6159 67.2732 91.8412 66.9223 90.2104 66.1931C87.6554 65.1346 86.0311 62.7438 84.0601 60.9006C82.0103 59.276 80.4034 57.1607 79.3881 54.7503C78.6647 52.4344 78.4712 49.9855 78.8219 47.5847C79.1725 45.1839 80.0583 42.8926 81.4139 40.8803C82.5444 38.996 83.4683 36.9951 84.1696 34.9125C86.3779 29.2733 94.6816 23.0501 104.245 24.8568C106.42 25.5742 108.452 26.6675 110.249 28.0871C114.264 30.5143 119.009 31.3538 122.13 35.1316C123.955 37.2486 124.283 39.7123 125.232 42.2673C126.448 44.5547 127.13 47.0874 127.228 49.6758C127.326 52.2643 126.837 54.8413 125.798 57.2141ZM281.835 235.425C284.025 239.897 284.719 250.354 284.263 255.227C284.062 257.307 282.182 261.413 279.426 259.862C280.032 258.904 280.401 257.815 280.503 256.687C280.909 253.662 281.104 250.613 281.087 247.562C281.241 244.208 280.777 240.855 279.718 237.67C279.206 235.603 278.147 233.712 276.652 232.195C277.748 232.11 278.842 232.377 279.775 232.958C280.707 233.54 281.43 234.404 281.835 235.425ZM274.535 237.834C274.7 236.812 275.722 235.717 276.598 236.247C277.09 236.612 276.908 237.433 276.598 237.944C275.922 239.404 274.298 239.075 274.499 237.889L274.535 237.834ZM273.513 241.028C274.28 240.499 275.758 239.586 276.744 239.842C276.911 239.879 277.063 239.967 277.177 240.095C277.292 240.223 277.364 240.383 277.382 240.554C277.382 240.919 277.145 241.119 276.871 241.302C276.259 241.722 275.605 242.077 274.919 242.36C274.559 242.565 274.137 242.63 273.732 242.543C273.592 242.491 273.467 242.403 273.371 242.288C273.275 242.172 273.211 242.034 273.185 241.886C273.159 241.738 273.173 241.587 273.224 241.446C273.275 241.305 273.362 241.18 273.477 241.083L273.513 241.028ZM273.915 243.693C275.028 243.163 277.255 241.868 278.167 242.908C279.08 243.948 277.583 244.605 276.89 244.988C276.196 245.372 274.535 246.394 273.459 245.828C272.637 245.445 272.491 244.423 273.878 243.747L273.915 243.693ZM229.75 43.1068C230.918 41.2818 231.192 39.1466 232.287 37.3033C233.983 34.4627 236.521 32.22 239.549 30.8859C242.577 29.5518 245.945 29.1923 249.186 29.8573C251.226 30.7028 253.172 31.761 254.99 33.0146C258.329 34.9491 262.034 35.5696 264.644 38.6903C266.068 40.5979 267.013 42.8199 267.4 45.1691C267.892 47.2861 269.133 48.8191 269.225 51.1551C269.53 54.013 268.854 56.8897 267.308 59.3128C265.96 61.2901 264.274 63.0138 262.326 64.4046C260.501 65.5908 253.712 68.2918 249.46 66.6311C248.693 66.3391 246.923 65.3901 246.923 65.3901C246.923 65.3901 246.795 63.565 246.741 62.689C250.145 59.5561 253.022 55.8958 255.263 51.8486C255.273 51.8318 255.279 51.8133 255.282 51.7941C255.284 51.7749 255.283 51.7555 255.278 51.7368C255.272 51.7182 255.264 51.7007 255.252 51.6855C255.24 51.6702 255.225 51.6574 255.209 51.6478C255.192 51.6382 255.173 51.632 255.154 51.6296C255.135 51.6272 255.116 51.6285 255.097 51.6336C255.078 51.6387 255.061 51.6474 255.046 51.6592C255.03 51.6711 255.017 51.6858 255.008 51.7026C252.724 55.4102 249.922 58.7719 246.686 61.6853C246.418 57.2931 246.254 52.8827 246.193 48.4541C248.997 46.3572 251.102 43.4631 252.234 40.1503C252.234 39.9678 251.997 39.8218 251.905 40.0226C250.415 42.733 248.512 45.1956 246.266 47.3226V40.3328C246.266 40.1138 245.938 40.1321 245.919 40.3328C245.627 44.068 245.445 47.8396 245.372 51.6478C243.509 51.1673 241.721 50.4303 240.061 49.4578C239.86 49.3301 239.696 49.6403 239.879 49.7681C241.48 51.0758 243.349 52.0165 245.354 52.5238C245.354 56.7761 245.773 65.2988 245.773 65.2988C241.466 66.9778 238.236 66.5033 235.864 65.0251C234.014 63.6291 232.313 62.045 230.79 60.2983C228.717 57.9632 227.487 54.9996 227.298 51.8824C227.11 48.7652 227.973 45.6749 229.75 43.1068ZM164.251 38.4348C174.89 32.7773 196.48 35.0586 202.32 44.9318C201.645 47.3773 200.24 53.3086 200.221 53.6006C195.841 48.3446 189.709 43.8733 182.774 43.0703C176.15 42.3221 167.882 42.2491 162.334 46.4831C162.826 43.7674 163.466 41.0807 164.251 38.4348ZM170.474 83.1473C174.708 81.8516 173.978 77.3986 174.562 73.8946C174.562 73.2011 169.233 72.5441 165.857 69.4051C160.856 64.7513 161.039 53.6188 162.207 47.0488C167.773 42.7053 176.442 42.6688 183.139 43.5813C185.084 43.849 186.978 44.4025 188.76 45.2238C188.249 47.6328 188.304 51.812 189.052 52.8523C189.575 52.3898 190.2 52.0577 190.875 51.8832C191.551 51.7087 192.258 51.6968 192.94 51.8486C193.391 51.9714 193.806 52.2015 194.149 52.5192C194.492 52.837 194.753 53.233 194.911 53.6736C196.06 56.6301 193.505 58.4368 193.086 59.0208C192.777 59.5759 192.673 60.2221 192.794 60.8458C192.974 62.778 192.686 64.7251 191.956 66.5229C191.225 68.3206 190.073 69.9163 188.596 71.1753C188.106 71.3548 187.606 71.5072 187.1 71.6316C186.844 71.6316 187.1 76.8876 193.067 81.9246C195.284 81.8696 197.502 81.9427 199.71 82.1435C198.373 85.9684 195.73 89.1993 192.246 91.2685C181.752 98.2583 173.467 96.7436 169.926 94.9185C168.068 93.8733 166.682 92.1547 166.053 90.1172C165.425 88.0797 165.603 85.8788 166.55 83.9686C167.773 83.6583 170.364 83.1656 170.456 83.1473H170.474ZM140.836 64.8973C140.836 65.0251 139.796 65.9375 139.577 66.3391C139.552 65.7153 139.429 65.0993 139.212 64.514C139.942 63.9665 141.037 64.3316 140.818 64.8426L140.836 64.8973ZM115.286 132.86C111.698 132.214 108.482 130.249 106.27 127.351C104.058 124.453 103.01 120.833 103.332 117.202C104.485 109.711 107.122 102.526 111.088 96.0683C116.563 87.3813 123.553 79.0958 125.962 72.3433C126.729 70.0073 126.656 67.4341 128.116 65.3536C128.933 64.2383 130.063 63.3912 131.363 62.92C132.663 62.4488 134.074 62.3748 135.416 62.7073C136.32 62.8119 137.157 63.238 137.773 63.9081C138.39 64.5781 138.745 65.4473 138.774 66.3573C138.851 67.2008 138.737 68.0508 138.44 68.8441C138.143 69.6373 137.671 70.3531 137.058 70.938C137.159 69.6439 136.914 68.3461 136.346 67.1786C136.346 67.0143 135.945 67.1786 136.018 67.3246C136.491 68.6467 136.592 70.0734 136.31 71.4491C136.073 71.9783 135.507 71.8506 135.197 71.7593C135.586 70.2374 135.535 68.6363 135.051 67.1421C135.038 67.1012 135.012 67.0655 134.978 67.0402C134.943 67.0148 134.902 67.0011 134.859 67.0011C134.816 67.0011 134.775 67.0148 134.74 67.0402C134.706 67.0655 134.68 67.1012 134.667 67.1421C134.667 68.1823 135.58 72.398 133.7 71.4855C133.587 70.0097 133.393 68.5414 133.116 67.0873C133.116 66.85 132.751 66.9596 132.769 67.1786C132.945 68.5039 133.043 69.8385 133.061 71.1753C133.061 71.9418 131.966 71.6681 131.62 71.1753C131.025 69.9655 130.802 68.6062 130.981 67.2698C130.974 67.2153 130.951 67.1642 130.915 67.1229C130.879 67.0817 130.831 67.0523 130.778 67.0385C130.725 67.0247 130.669 67.0272 130.617 67.0457C130.565 67.0642 130.52 67.0977 130.488 67.1421C129.557 68.9671 130.944 73.0003 132.751 72.7448C132.935 72.5903 133.168 72.5056 133.408 72.5056C133.648 72.5056 133.881 72.5903 134.065 72.7448C130.032 98.8606 131.163 110.924 121.947 117.384C121.819 117.384 121.947 117.713 122.075 117.603C126.319 114.4 129.199 109.714 130.141 104.482C131.501 103.645 132.909 102.889 134.357 102.219C135.051 105.449 136.328 122.275 138.153 126.747C131.93 130.853 122.823 134.284 115.304 132.787L115.286 132.86ZM123.882 314.101C123.975 313.999 124.094 313.922 124.226 313.879C124.358 313.836 124.498 313.828 124.634 313.855C124.77 313.883 124.897 313.945 125.002 314.036C125.107 314.127 125.186 314.244 125.232 314.375C125.232 314.375 125.725 317.185 125.031 318.025C124.922 318.159 124.775 318.257 124.608 318.306C124.442 318.355 124.265 318.352 124.101 318.299C123.754 318.061 123.188 314.758 123.9 314.046L123.882 314.101ZM120.907 312.568C121.71 311.82 123.152 317.295 121.819 317.934C120.487 318.572 120.378 316.93 120.323 316.109C120.268 314.995 120.031 313.371 120.925 312.513L120.907 312.568ZM126.911 324.504C123.793 324.374 120.714 323.758 117.786 322.679C114.257 321.546 110.865 320.022 107.676 318.134C105.759 317.058 103.606 313.681 105.851 311.966C106.466 312.908 107.29 313.695 108.26 314.265C119.356 320.525 128.335 321.857 129.795 321.657C130.56 321.535 131.312 321.34 132.039 321.073C131.657 322.105 130.955 322.989 130.036 323.596C129.118 324.203 128.029 324.502 126.929 324.449L126.911 324.504ZM126.4 317.459C126.422 317.317 126.477 317.181 126.562 317.064C126.646 316.948 126.757 316.852 126.885 316.786C127.013 316.72 127.155 316.686 127.299 316.685C127.443 316.685 127.586 316.719 127.714 316.784C127.994 316.955 128.232 317.187 128.412 317.461C128.592 317.736 128.709 318.047 128.754 318.372C128.805 318.535 128.803 318.711 128.749 318.874C128.694 319.037 128.59 319.178 128.452 319.279C128.313 319.379 128.146 319.434 127.974 319.435C127.803 319.436 127.635 319.383 127.495 319.284C127.495 319.284 126.309 318.098 126.418 317.404L126.4 317.459ZM133.554 311.528C132.444 312.055 131.199 312.231 129.986 312.032C128.773 311.833 127.649 311.269 126.765 310.415C125.991 309.339 125.507 308.082 125.36 306.765C128.118 308.399 131.281 309.221 134.485 309.137C134.211 309.849 133.883 310.652 133.572 311.473L133.554 311.528ZM164.835 245.463C164.196 246.795 158.21 264.625 151.768 276.962C148.647 282.93 145.855 288.88 142.351 294.61C139.504 299.079 136.968 303.737 134.759 308.553C131.441 308.551 128.179 307.696 125.287 306.071C125.104 304.94 125.031 304.009 124.977 303.863C125.798 295.76 126.254 287.62 127.167 279.517C128.225 270.009 132.514 237.944 135.233 229.366C137.496 222.066 142.223 215.861 147.004 210.04C154.45 215.934 179.453 234.641 180.037 234.987C176.734 237.78 165.802 243.419 164.835 245.463ZM267.4 234.987C268.302 235.779 268.948 236.822 269.254 237.983C269.559 239.144 269.511 240.369 269.115 241.503C268.549 243.145 265.1 245.153 264.188 245.737L263.549 245.645C266.14 242.379 266.122 238.51 265.903 234.495C266.451 234.677 266.907 234.823 267.4 234.987ZM227.158 216.099C236.721 221.209 255.19 230.699 265.392 234.349C265.556 238.382 265.611 242.269 263.001 245.609C233.601 241.43 207.594 240.9 193.451 230.206C197.922 225.954 211.701 212.412 213.872 208.507C218.289 210.989 222.651 213.69 227.158 216.099ZM224.184 167.754C228.436 169.871 232.998 172.682 234.586 177.409C235.937 181.424 234.404 185.712 232.287 189.143C228.482 194.932 223.376 199.751 217.376 203.214C219.934 198.874 221.546 194.041 222.106 189.034C222.666 184.027 222.161 178.958 220.625 174.16C221.72 173.722 222.778 173.248 223.837 172.7C223.912 172.711 223.988 172.692 224.049 172.648C224.11 172.603 224.152 172.537 224.165 172.463C224.184 172.28 224.202 168.466 224.184 167.754ZM248.712 101.379C252.216 103.77 256.358 106.252 259.059 109.592C263.421 115.067 264.644 122.75 264.242 129.484C263.257 145.8 253.037 159.779 250.044 175.62C250.222 177.257 250.111 178.913 249.715 180.511C249.442 182.166 248.88 183.759 248.055 185.22C246.485 187.282 240.846 185.639 240.39 183.121C240.39 181.589 240.681 180.072 241.247 178.65C241.255 178.609 241.248 178.566 241.228 178.53C241.208 178.493 241.176 178.465 241.138 178.449C240.046 178.26 239.024 177.781 238.181 177.062C238.089 176.918 238.039 176.75 238.039 176.578C238.039 176.407 238.089 176.239 238.181 176.095C238.51 175.803 241.539 176.715 242.671 175.237C242.689 175.21 242.699 175.178 242.699 175.146C242.699 175.113 242.689 175.081 242.671 175.054C241.156 158.064 236.922 141.036 242.671 124.338C242.683 124.313 242.689 124.285 242.69 124.258C242.691 124.23 242.686 124.202 242.676 124.177C242.666 124.151 242.65 124.128 242.63 124.108C242.611 124.089 242.587 124.074 242.561 124.064C238.327 121.819 232.998 122.348 229.257 119.045C229.768 118.114 237.086 97.9846 237.871 94.4258C241.558 96.5976 245.153 98.9518 248.712 101.379ZM226.428 122.44C225.242 123.991 221.154 121.089 219.731 120.432C218.307 119.775 216.373 118.881 214.675 118.187C214.383 118.06 214.164 118.552 214.456 118.698C215.77 119.374 217.121 120.012 218.471 120.651C221.874 137.669 223.591 154.98 223.6 172.335C215.967 175.62 207.727 177.255 199.418 177.135C190.705 177.537 181.977 176.77 173.467 174.854C165.638 172.846 157.735 171.331 149.961 169.087C147.862 168.484 146.475 168.174 146.311 165.583C146.147 162.991 146.767 126.418 149.14 115.359C149.14 115.103 148.793 114.994 148.738 115.249C148.045 118.461 147.515 121.71 147.114 124.976C145.289 126.09 141.402 128.626 139.266 127.404C137.131 126.181 137.168 120.104 136.985 118.498C136.602 115.286 134.722 100.813 134.923 100.248C139.974 95.9985 145.483 92.3258 151.348 89.2976C156.066 87.0628 161.001 85.3199 166.076 84.0963C163.247 90.6298 167.718 97.6926 178.851 97.0903C183.501 96.5522 187.946 94.8719 191.79 92.1993C195.732 89.7721 199.09 86.7243 200.039 82.0888C213.726 83.202 220.515 86.2681 225.899 87.6733C229.885 88.9664 233.796 90.4773 237.616 92.1993C237.616 92.1993 230.535 117.038 226.392 122.421L226.428 122.44ZM302.531 73.0003C302.768 73.6391 302.367 74.5333 302.148 75.3546C279.7 79.4243 256.267 80.8296 235.298 90.4656C222.651 84.6986 206.864 80.8843 193.323 81.3406C190.234 79.0405 188.144 75.6443 187.483 71.8506C192.301 70.792 195.276 66.7588 197.758 62.5796C199.303 59.5574 200.315 56.2915 200.751 52.9253C204.711 53.0166 208.689 52.9253 212.65 52.9253C217.261 53.117 221.879 52.8233 226.428 52.0493C226.436 53.6847 226.784 55.3006 227.45 56.7943C228.543 58.7439 230.014 60.4562 231.776 61.8313C233.3 63.6462 235.159 65.1517 237.251 66.2661C240.134 67.2723 243.285 67.201 246.12 66.0653C246.12 66.0653 246.905 73.7121 247.544 77.4533C247.544 77.8731 248.347 77.7818 248.292 77.4533C247.89 73.6938 247.252 66.1931 247.252 66.1931C247.252 66.1931 248.803 66.8866 249.496 67.1603C253.876 68.9853 261.523 66.0288 263.001 64.9156C266.651 62.1233 269.681 58.6376 270.064 53.8378V51.4653C270.064 51.4653 298.206 51.4653 303.662 51.7208C301.126 54.7503 298.863 63.0906 302.531 73.0003ZM341.586 69.9526C337.936 76.3766 334.286 82.91 329.979 88.9873C330.088 99.6271 330.38 110.34 329.815 120.943C329.815 121.05 329.772 121.152 329.697 121.227C329.622 121.302 329.52 121.345 329.413 121.345C329.307 121.345 329.205 121.302 329.129 121.227C329.054 121.152 329.012 121.05 329.012 120.943V110.157C325.603 106.506 321.666 103.387 317.332 100.905C317.021 100.74 317.332 100.248 317.624 100.412C321.981 102.446 325.861 105.374 329.012 109.008C329.012 95.3201 329.34 81.6326 329.541 67.9816C326.84 64.6633 323.517 61.9046 319.759 59.8603C319.394 59.6961 319.759 59.1668 320.087 59.3311C323.912 60.8566 327.206 63.4709 329.559 66.8501C329.815 49.0746 329.559 49.6038 329.942 49.6768C330.034 49.6768 330.088 49.6768 330.107 49.8411C330.508 61.7766 329.979 73.7121 330.107 85.6476V87.4726C333.757 81.4683 337.717 75.7196 341.221 69.6605C341.272 69.6449 341.326 69.6434 341.377 69.6562C341.429 69.669 341.476 69.6956 341.513 69.7331C341.551 69.7707 341.577 69.8177 341.59 69.8693C341.603 69.9208 341.602 69.9748 341.586 70.0256V69.9526Z" fill="black"/>
</svg>
